<?xml version="1.0" encoding="UTF-8" standalone="no"?>
<!DOCTYPE svg PUBLIC "-//W3C//DTD SVG 1.1//EN" "http://www.w3.org/Graphics/SVG/1.1/DTD/svg11.dtd">
<svg version="1.1" xmlns="http://www.w3.org/2000/svg" xmlns:xlink="http://www.w3.org/1999/xlink" preserveAspectRatio="xMidYMid meet" viewBox="0 0 800 800" width="800" height="800"><defs><path d="M745 375C745 551.61 601.61 695 425 695C248.39 695 105 551.61 105 375C105 198.39 248.39 55 425 55C601.61 55 745 198.39 745 375Z" id="j4S2hy9V1J"></path><path d="M695 375C695 524.02 574.02 645 425 645C275.98 645 155 524.02 155 375C155 225.98 275.98 105 425 105C574.02 105 695 225.98 695 375Z" id="ahoS3K87T"></path><path d="M685 375C685 518.5 568.5 635 425 635C281.5 635 165 518.5 165 375C165 231.5 281.5 115 425 115C568.5 115 685 231.5 685 375Z" id="g75iuVt7f"></path><path d="M444.92 125.81L454.53 126.78L464.07 128.11L473.55 129.81L482.94 131.87L492.24 134.28L501.43 137.04L510.52 140.15L515.9 142.23L287.61 583.85L280.07 578.72L272.29 572.97L264.72 566.91L257.38 560.53L250.26 553.85L243.39 546.88L236.77 539.6L230.42 532.03L224.34 524.17L218.55 516.03L213.05 507.61L207.86 498.9L202.99 489.93L198.45 480.68L194.29 471.26L190.54 461.76L187.21 452.19L184.29 442.57L181.78 432.9L179.66 423.19L177.95 413.46L176.63 403.71L175.7 393.96L175.16 384.22L175 374.49L175.22 364.79L175.81 355.14L176.78 345.53L178.11 335.98L179.81 326.51L181.87 317.12L184.28 307.82L187.04 298.62L190.15 289.54L193.61 280.58L197.4 271.76L201.53 263.09L205.99 254.57L210.78 246.22L215.9 238.05L221.33 230.07L227.09 222.29L233.15 214.72L239.52 207.38L246.2 200.26L253.18 193.39L260.46 186.77L268.02 180.42L275.88 174.34L284.03 168.55L292.45 163.05L301.15 157.86L310.13 152.99L319.37 148.45L328.8 144.29L338.3 140.54L347.86 137.21L357.49 134.29L367.16 131.78L376.87 129.66L386.6 127.95L396.35 126.63L406.1 125.7L415.84 125.16L425.57 125L435.26 125.22L444.92 125.81Z" id="d12N81AkII"></path><path d="M455 375L655 375" id="c2EhNuvYzh"></path><path d="M559 256.33L604.25 211.07" id="h1eZDZ72ts"></path><path d="M475 375C475 402.6 452.6 425 425 425C397.4 425 375 402.6 375 375C375 347.4 397.4 325 425 325C452.6 325 475 347.4 475 375Z" id="cpoFPyxDE"></path><path d="M425 195.78L425 131.78" id="apHscz1oX"></path><path d="M425 619.5L425 555.5" id="d24IhbAvtk"></path><path d="M553 495L598.25 540.25" id="ednkLDbiw"></path><path d="M409.84 37.5L440.16 37.5L440.16 55.41L409.84 55.41L409.84 37.5Z" id="cvqKZJ9c6"></path><path d="M484.86 3C491.82 3 497.45 8.64 497.45 15.59C497.45 21.96 497.45 28.49 497.45 34.87C497.45 41.82 491.82 47.45 484.86 47.45C459.38 47.45 395.52 47.45 370.04 47.45C363.09 47.45 357.45 41.82 357.45 34.87C357.45 28.49 357.45 21.96 357.45 15.59C357.45 8.64 363.09 3 370.04 3C395.52 3 459.38 3 484.86 3Z" id="a96PmD1AN4"></path></defs><g><g><g><use xlink:href="#j4S2hy9V1J" opacity="1" fill="#e79307" fill-opacity="1"></use><g><use xlink:href="#j4S2hy9V1J" opacity="1" fill-opacity="0" stroke="#e79307" stroke-width="0" stroke-opacity="1"></use></g></g><g><use xlink:href="#ahoS3K87T" opacity="1" fill="#fbfbfb" fill-opacity="1"></use></g><g><g><use xlink:href="#g75iuVt7f" opacity="1" fill-opacity="0" stroke="#2e2d2f" stroke-width="14" stroke-opacity="1"></use></g></g><g><use xlink:href="#d12N81AkII" opacity="1" fill="#e0e4e4" fill-opacity="1"></use></g><g><g><use xlink:href="#c2EhNuvYzh" opacity="1" fill-opacity="0" stroke="#2e2d2f" stroke-width="40" stroke-opacity="1"></use></g></g><g><g><use xlink:href="#h1eZDZ72ts" opacity="1" fill-opacity="0" stroke="#2e2d2f" stroke-width="24" stroke-opacity="1"></use></g></g><g><use xlink:href="#cpoFPyxDE" opacity="1" fill="#2e2d2f" fill-opacity="1"></use></g><g><g><use xlink:href="#apHscz1oX" opacity="1" fill-opacity="0" stroke="#2e2d2f" stroke-width="24" stroke-opacity="1"></use></g></g><g><g><use xlink:href="#d24IhbAvtk" opacity="1" fill-opacity="0" stroke="#2e2d2f" stroke-width="24" stroke-opacity="1"></use></g></g><g><g><use xlink:href="#ednkLDbiw" opacity="1" fill-opacity="0" stroke="#2e2d2f" stroke-width="24" stroke-opacity="1"></use></g></g><g><use xlink:href="#cvqKZJ9c6" opacity="1" fill="#e79307" fill-opacity="1"></use></g><g><use xlink:href="#a96PmD1AN4" opacity="1" fill="#e79307" fill-opacity="1"></use></g></g></g></svg>